<svg width="16" height="16" viewBox="0 0 16 16" fill="none" xmlns="http://www.w3.org/2000/svg">
<path d="M9.74982 6.8334H7.99982V5.0834C7.99982 4.92869 7.93836 4.78032 7.82897 4.67092C7.71957 4.56152 7.5712 4.50007 7.41649 4.50007C7.26178 4.50007 7.11341 4.56152 7.00401 4.67092C6.89461 4.78032 6.83316 4.92869 6.83316 5.0834V6.8334H5.08316C4.92845 6.8334 4.78007 6.89486 4.67068 7.00425C4.56128 7.11365 4.49982 7.26202 4.49982 7.41673C4.49982 7.57144 4.56128 7.71982 4.67068 7.82921C4.78007 7.93861 4.92845 8.00007 5.08316 8.00007H6.83316V9.75007C6.83316 9.90478 6.89461 10.0531 7.00401 10.1625C7.11341 10.2719 7.26178 10.3334 7.41649 10.3334C7.5712 10.3334 7.71957 10.2719 7.82897 10.1625C7.93836 10.0531 7.99982 9.90478 7.99982 9.75007V8.00007H9.74982C9.90453 8.00007 10.0529 7.93861 10.1623 7.82921C10.2717 7.71982 10.3332 7.57144 10.3332 7.41673C10.3332 7.26202 10.2717 7.11365 10.1623 7.00425C10.0529 6.89486 9.90453 6.8334 9.74982 6.8334ZM13.664 12.8359L11.4998 10.6892C12.3399 9.64181 12.7467 8.31232 12.6366 6.97416C12.5266 5.63599 11.908 4.39086 10.908 3.49478C9.90812 2.59869 8.60288 2.11978 7.26069 2.15651C5.91851 2.19323 4.64141 2.74281 3.69199 3.69223C2.74257 4.64165 2.19299 5.91876 2.15626 7.26094C2.11954 8.60312 2.59845 9.90837 3.49453 10.9083C4.39061 11.9082 5.63575 12.5268 6.97391 12.6369C8.31208 12.7469 9.64156 12.3401 10.689 11.5001L12.8357 13.6467C12.8899 13.7014 12.9544 13.7448 13.0255 13.7744C13.0966 13.804 13.1728 13.8193 13.2498 13.8193C13.3268 13.8193 13.4031 13.804 13.4742 13.7744C13.5452 13.7448 13.6098 13.7014 13.664 13.6467C13.7691 13.538 13.8279 13.3926 13.8279 13.2413C13.8279 13.09 13.7691 12.9447 13.664 12.8359ZM7.41649 11.5001C6.60888 11.5001 5.81941 11.2606 5.14791 10.8119C4.47641 10.3632 3.95304 9.72549 3.64398 8.97936C3.33492 8.23323 3.25406 7.4122 3.41162 6.62011C3.56917 5.82803 3.95807 5.10045 4.52914 4.52938C5.1002 3.95832 5.82778 3.56942 6.61987 3.41186C7.41196 3.2543 8.23298 3.33517 8.97911 3.64422C9.72525 3.95328 10.363 4.47665 10.8117 5.14815C11.2603 5.81966 11.4998 6.60913 11.4998 7.41673C11.4998 8.4997 11.0696 9.53831 10.3038 10.3041C9.53807 11.0699 8.49946 11.5001 7.41649 11.5001Z" fill="#7E33E0"/>
</svg>
