<svg width="87" height="57" viewBox="0 0 87 57" fill="none" xmlns="http://www.w3.org/2000/svg">
<path d="M79.0066 0C77.9072 13.7747 20.8665 17.32 13 18.5C-2.95372 20.8931 -1.41295 46.3964 7.00667 56.5C9.3973 30.2067 114 59.5 79.0066 0Z" fill="#603EFF"/>
<path d="M36.8241 24.9355C36.4602 24.8005 36.0665 24.6926 35.6432 24.6117C35.2199 24.5309 34.8137 24.5138 34.4244 24.5604C33.887 24.6249 33.471 24.8016 33.1767 25.0907C32.8916 25.3787 32.7741 25.7312 32.8241 26.1482C32.8618 26.4633 32.996 26.7198 33.2265 26.9178C33.4559 27.1065 33.7469 27.2596 34.0994 27.3772C34.4519 27.4947 34.8172 27.6013 35.1953 27.697C35.5248 27.7797 35.8513 27.8768 36.1749 27.9885C36.4985 28.1001 36.7941 28.2526 37.0617 28.4462C37.3386 28.6386 37.566 28.8886 37.7438 29.1963C37.931 29.5029 38.0535 29.8971 38.1112 30.379C38.1746 30.9072 38.098 31.4052 37.8814 31.8729C37.6742 32.3396 37.34 32.7275 36.8788 33.0366C36.4177 33.3457 35.8488 33.5407 35.1723 33.6218C34.7275 33.6752 34.2951 33.6753 33.8752 33.6223C33.4645 33.5681 33.0782 33.4828 32.7165 33.3664C32.3536 33.2407 32.0272 33.1059 31.7374 32.962L32.2085 31.8339C32.4497 31.9648 32.7229 32.0872 33.028 32.201C33.3319 32.3056 33.647 32.3853 33.9732 32.4402C34.2982 32.4858 34.609 32.4909 34.9056 32.4553C35.2207 32.4175 35.5244 32.3247 35.8169 32.1768C36.1176 32.0186 36.3554 31.8068 36.5304 31.5414C36.7054 31.276 36.769 30.9441 36.7212 30.5456C36.6801 30.2027 36.5535 29.9312 36.3415 29.731C36.1377 29.5204 35.878 29.3542 35.5626 29.2322C35.2461 29.1009 34.9132 28.9904 34.5641 28.9007C34.2345 28.818 33.8993 28.7266 33.5583 28.6265C33.2161 28.5171 32.8939 28.3771 32.5914 28.2066C32.2878 28.0267 32.0343 27.7939 31.8309 27.5081C31.6274 27.2223 31.4996 26.8616 31.4473 26.4261C31.384 25.8979 31.4541 25.4241 31.6577 25.0049C31.8694 24.5753 32.1843 24.2227 32.6025 23.947C33.0195 23.662 33.5142 23.4757 34.0865 23.3883C34.7352 23.3106 35.3146 23.321 35.8246 23.4197C36.3439 23.5172 36.8074 23.6591 37.2151 23.8452L36.8241 24.9355ZM42.7936 32.7364C42.2561 32.8008 41.751 32.7439 41.2785 32.5655C40.8151 32.3861 40.4271 32.0895 40.1143 31.6758C39.8096 31.2517 39.6184 30.7153 39.5407 30.0666C39.464 29.4272 39.5323 28.8597 39.7455 28.3641C39.9575 27.8593 40.271 27.4551 40.6858 27.1516C41.1099 26.8469 41.5907 26.6624 42.1282 26.598C42.6657 26.5335 43.1347 26.6042 43.5354 26.81C43.935 27.0065 44.2521 27.2599 44.4867 27.5701L44.4299 27.8025L44.4084 26.5643L45.6038 26.421L46.2937 32.1758L45.001 32.3308L44.821 30.8295L45 31.1465C44.974 31.2436 44.9051 31.374 44.7931 31.5379C44.6893 31.6913 44.5397 31.8549 44.3444 32.0288C44.1583 32.2015 43.937 32.3549 43.6804 32.4891C43.4228 32.614 43.1272 32.6964 42.7936 32.7364ZM43.0128 31.6244C43.3371 31.5855 43.6218 31.4903 43.8668 31.3387C44.1119 31.1871 44.305 30.9948 44.4463 30.7616C44.5957 30.5181 44.6845 30.2396 44.7127 29.926L44.5777 28.8C44.4702 28.5309 44.3116 28.3055 44.1018 28.1239C43.8909 27.933 43.6491 27.7974 43.3763 27.7173C43.1024 27.628 42.8079 27.6022 42.4928 27.64C42.1499 27.6811 41.8448 27.8022 41.5776 28.0035C41.3103 28.2047 41.1064 28.4642 40.9659 28.7818C40.8346 29.0984 40.7929 29.4559 40.8406 29.8544C40.8851 30.225 41.0137 30.5527 41.2264 30.8374C41.4391 31.1221 41.7043 31.3347 42.022 31.4753C42.3396 31.6158 42.6699 31.6655 43.0128 31.6244ZM47.241 21.1486L48.5338 20.9936L49.8236 31.7526L48.5308 31.9076L47.241 21.1486ZM54.7458 31.3035C54.0878 31.3824 53.507 31.3204 53.0033 31.1176C52.4984 30.9055 52.0891 30.588 51.7752 30.165C51.4694 29.7317 51.281 29.2185 51.2099 28.6254C51.1421 28.0601 51.2241 27.5285 51.4558 27.0308C51.6875 26.533 52.0277 26.1162 52.4762 25.7804C52.9248 25.4446 53.4456 25.2412 54.0387 25.1701C54.7986 25.079 55.4554 25.2258 56.0092 25.6107C56.5629 25.9955 56.9745 26.5666 57.2439 27.3239L52.7038 29.5602L52.3063 28.8323L56.0285 26.9479L55.7721 27.1619C55.6243 26.8694 55.4073 26.6275 55.1211 26.4362C54.8339 26.2357 54.4817 26.1604 54.0647 26.2104C53.7126 26.2526 53.408 26.3784 53.1511 26.5878C52.8931 26.7879 52.7031 27.0457 52.5811 27.3612C52.4592 27.6766 52.4209 28.0243 52.4665 28.4042C52.5143 28.8027 52.6399 29.1448 52.8433 29.4307C53.0457 29.7072 53.3011 29.9163 53.6095 30.0579C53.926 30.1892 54.2696 30.2326 54.6403 30.1882C54.8905 30.1582 55.1259 30.0829 55.3464 29.9625C55.5763 29.8409 55.7842 29.6938 55.9703 29.5211L56.683 30.4086C56.4191 30.6376 56.1136 30.834 55.7667 30.9978C55.429 31.1605 55.0887 31.2624 54.7458 31.3035Z" fill="#EEEFFB"/>
</svg>
